# xmcd
#
# Track frame offsets:
#	150
#	25162
#	61000
#	102522
#	131610
#	160537
#	203227
#	249585
#	281822
#	313550
#
# Disc length: 4736 seconds
#
# Revision: 1
# Processed by: cddbd v1.5.1PL0 Copyright (c) Steve Scherf et al.
# Submitted via: CDex 1.50Beta5
#
DISCID=85127e0a
DTITLE=V,A - White Compilation
DYEAR=1900
DGENRE=
TTITLE0=The Infinity Project/Stimuli
TTITLE1=Green Nuns of the Revolution/Confict
TTITLE2=Orichalcum/Wicked Mille
TTITLE3=The Infinity Project/Noises from the Darkness
TTITLE4=Doof/Mars needs Women
TTITLE5=Astral Projection/Kabalah(featuring dj Jorg)
TTITLE6=Laughing Buddha/Infinite Depths
TTITLE7=The Infinity Project/Hyperspaced
TTITLE8=Laughing Buddha/Megamorphosis
TTITLE9=Total Eclipse/Waiting for a new life
EXTD=
EXTT0=
EXTT1=
EXTT2=
EXTT3=
EXTT4=
EXTT5=
EXTT6=
EXTT7=
EXTT8=
EXTT9=
PLAYORDER=
